Coordinates
version=1
nRows=14
nColumns=42
inDegrees=yes

Units are S.I. units (second, meters, Newtons, ...)
If the header above contains a line with 'inDegrees', this indicates whether rotational values are in degrees (yes) or radians (no).

endheader
time	pelvis_tilt	pelvis_list	pelvis_rotation	pelvis_tx	pelvis_ty	pelvis_tz	hip_flexion_r	hip_adduction_r	hip_rotation_r	knee_angle_r	knee_adduction_r	knee_angle_r_beta	ankle_angle_r	subtalar_angle_r	mtp_angle_r	hip_flexion_l	hip_adduction_l	hip_rotation_l	knee_angle_l	knee_adduction_l	knee_angle_l_beta	ankle_angle_l	subtalar_angle_l	mtp_angle_l	lumbar_extension	lumbar_bending	lumbar_rotation	arm_flex_r	arm_add_r	arm_rot_r	elbow_flex_r	pro_sup_r	wrist_flex_r	wrist_dev_r	arm_flex_l	arm_add_l	arm_rot_l	elbow_flex_l	pro_sup_l	wrist_flex_l	wrist_dev_l
      0.40000000	      5.33912889	     -3.57543573	      9.90547113	     -1.09683766	      0.85795691	      0.19318716	     11.50637129	     10.71054549	     -8.15214398	     27.18117035	     -3.67002367	      0.47440092	     19.22990382	    -16.04828444	     -9.66110586	     22.13520287	      1.27685324	      3.46294370	     71.20744003	     -9.24222916	      1.24280428	     19.63946371	    -19.52478133	     -9.66110586	    -34.62286383	      7.83826227	     -1.94944215	     14.47905667	     -8.66423422	     -7.01391937	     33.65682997	     90.00000001	      0.00000000	      0.00000000	     17.50825841	     -7.98926501	     -9.80057669	     31.95789469	     90.00000001	      0.00000000	      0.00000000
      0.41000000	      5.32763995	     -3.61329288	      9.80092935	     -1.08840097	      0.85797406	      0.19396856	     10.94438873	     10.96186003	     -8.31438944	     27.28464985	     -3.77598247	      0.47620698	     19.43691577	    -15.71099703	     -9.64048467	     23.31872214	      1.41340209	      3.39599908	     70.25530321	     -9.16372481	      1.22618636	     19.66491899	    -19.55602081	     -9.64048467	    -34.65686608	      7.77375787	     -1.73387536	     15.19301521	     -8.90233464	     -6.98385143	     34.06116008	     90.00000001	      0.00000000	      0.00000000	     16.91036912	     -7.84887100	     -9.76956244	     31.74858263	     90.00000001	      0.00000000	      0.00000000
      0.42000000	      5.72212188	     -3.24763175	      9.53063941	     -1.07919916	      0.85921030	      0.19480086	      9.64961511	     10.94619574	     -7.92003566	     27.19164413	     -3.92999634	      0.47458372	     20.68604145	    -15.86916473	     -9.58191204	     23.50767905	      1.95311851	      2.29863593	     68.30656880	     -9.96861561	      1.19217453	     19.71765761	    -19.51538358	     -9.58191204	    -35.15295041	      7.25971936	     -1.45331256	     15.75892065	     -9.16602645	     -6.40862527	     34.40991818	     90.00000001	      0.00000000	      0.00000000	     16.74303926	     -7.70238103	    -10.00371511	     30.41715348	     90.00000001	      0.00000000	      0.00000000
      0.43000000	      6.03199308	     -3.02979163	      9.24613147	     -1.07013662	      0.85998106	      0.19551862	      8.48010423	     11.05678656	     -7.56842489	     27.06953180	     -4.10891825	      0.47245246	     21.20030077	    -15.67144733	     -9.51201656	     23.92669110	      2.28611711	      1.21797062	     66.42937558	    -10.63194807	      1.15941132	     19.46337563	    -19.50381754	     -9.51201656	    -35.53019353	      6.90011706	     -1.16568029	     16.36003915	     -9.49230459	     -5.85051216	     34.89439711	     90.00000001	      0.00000000	      0.00000000	     16.35107330	     -7.48604021	    -10.56098001	     29.77934819	     90.00000001	      0.00000000	      0.00000000
      0.44000000	      6.15617411	     -2.93545071	      9.03746380	     -1.06133009	      0.86010100	      0.19621809	      7.65082241	     11.26265243	     -7.41451723	     27.06959114	     -4.33893666	      0.47245349	     21.82500249	    -15.59456503	     -9.46142053	     24.61426248	      2.51759867	      0.78950446	     64.59975338	    -10.73478821	      1.12747839	     19.34961170	    -19.49126183	     -9.46142053	    -35.67613287	      6.67114028	     -0.94166927	     17.00528370	     -9.74152681	     -5.48427665	     35.31589228	     90.00000001	      0.00000000	      0.00000000	     15.88378818	     -7.32488114	    -10.89719456	     29.19030977	     90.00000001	      0.00000000	      0.00000000
      0.45000000	      6.05748280	     -3.10810510	      8.94591634	     -1.05273377	      0.85938522	      0.19677989	      7.20512681	     11.66962078	     -7.50263807	     27.16077301	     -4.52859943	      0.47404492	     22.11725186	    -15.19513271	     -9.43578606	     25.71664563	      2.47883166	      0.71548475	     62.86307015	    -10.59456521	      1.09716755	     19.26563303	    -19.49289019	     -9.43578606	    -35.53096922	      6.75730885	     -0.71100412	     17.62225327	     -9.94239022	     -5.38627718	     35.75030633	     90.00000001	      0.00000000	      0.00000000	     15.19911855	     -7.21090858	    -10.97804105	     28.95411532	     90.00000001	      0.00000000	      0.00000000
      0.46000000	      6.53049349	     -2.76550828	      8.66054300	     -1.04359133	      0.86031617	      0.19699231	      5.73702753	     11.57296119	     -6.87359759	     26.96144027	     -4.52202071	      0.47056590	     22.99714018	    -15.29510608	     -9.37031669	     25.63365466	      2.94501032	     -0.22152461	     60.29990606	    -10.98234188	      1.05243190	     18.92940695	    -19.45335974	     -9.37031669	    -36.07427359	      6.32656421	     -0.51131965	     18.25548000	    -10.38425234	     -4.52413789	     36.25746106	     90.00000001	      0.00000000	      0.00000000	     15.05048025	     -6.92536760	    -11.94268065	     27.87789436	     90.00000001	      0.00000000	      0.00000000
      0.47000000	      6.65534851	     -2.75910760	      8.48460758	     -1.03473795	      0.86003855	      0.19734851	      4.83100425	     11.85503706	     -6.65747546	     26.81150513	     -4.75873116	      0.46794904	     23.53545714	    -15.22019745	     -9.30459981	     26.20346489	      3.01208944	     -0.73234899	     58.03069143	    -10.96956160	      1.01282663	     18.68889055	    -19.42656475	     -9.30459981	    -36.17966216	      6.23226548	     -0.32659764	     18.87338555	    -10.69857637	     -3.93963019	     36.76883029	     90.00000001	      0.00000000	      0.00000000	     14.59898138	     -6.70222987	    -12.75694322	     27.30800248	     90.00000001	      0.00000000	      0.00000000
      0.48000000	      6.50384627	     -2.97568096	      8.43264300	     -1.02614354	      0.85882278	      0.19765198	      4.40720216	     12.35273369	     -6.78695482	     26.81882149	     -5.12821244	      0.46807674	     23.97287169	    -14.92894166	     -9.27817060	     27.23135535	      2.85473051	     -0.91298760	     55.92038920	    -10.69923260	      0.97599491	     18.57299543	    -19.39684179	     -9.27817060	    -35.93968128	      6.38330491	     -0.14494380	     19.47037408	    -10.91813360	     -3.80619906	     37.21252775	     90.00000001	      0.00000000	      0.00000000	     13.95809529	     -6.57600346	    -12.91931105	     27.06129144	     90.00000001	      0.00000000	      0.00000000
      0.49000000	      6.47803798	     -3.03775498	      8.32636937	     -1.01747527	      0.85793214	      0.19777795	      3.74552592	     12.68009570	     -6.81314959	     26.74745333	     -5.49010643	      0.46683113	     24.62917369	    -14.75586965	     -9.24927050	     27.91443386	      2.86396371	     -1.26441841	     53.48676878	    -10.47746220	      0.93352022	     18.34390838	    -19.36064836	     -9.24927050	    -35.86038245	      6.38764975	      0.01349377	     20.06952831	    -11.19032241	     -3.51035888	     37.69609111	     90.00000001	      0.00000000	      0.00000000	     13.45840874	     -6.41932454	    -13.25623511	     26.63012448	     90.00000001	      0.00000000	      0.00000000
      0.50000000	      6.86795889	     -2.88976894	      8.15515230	     -1.00839823	      0.85815453	      0.19758796	      2.37285739	     12.57223262	     -6.63313263	     26.46004898	     -5.27455605	      0.46181498	     25.39836798	    -14.44801078	     -9.19431536	     27.83103220	      3.00211346	     -2.22575019	     50.58227978	    -10.53404921	      0.88282733	     17.83835934	    -19.31081696	     -9.19431536	    -36.27383027	      6.22832649	      0.10068231	     20.66330444	    -11.53290531	     -2.65870650	     38.34101285	     90.00000001	      0.00000000	      0.00000000	     13.19883949	     -6.19643753	    -14.38311982	     25.79003440	     90.00000001	      0.00000000	      0.00000000
      0.51000000	      6.94038707	     -2.99467377	      8.07312831	     -0.99957406	      0.85730875	      0.19745196	      1.46169606	     12.86145225	     -6.63902412	     26.15233451	     -5.45530461	      0.45644434	     25.93071269	    -14.01419447	     -9.12815997	     28.29702417	      2.88901448	     -2.98585098	     47.96583762	    -10.41494036	      0.83716179	     17.53318998	    -19.23688540	     -9.12815997	    -36.29013081	      6.31394796	      0.22302987	     21.21661055	    -11.87557566	     -1.99336700	     38.89886459	     90.00000001	      0.00000000	      0.00000000	     12.82472522	     -5.94538315	    -15.58377284	     25.23832372	     90.00000001	      0.00000000	      0.00000000
      0.52000000	      6.68264723	     -3.37327065	      8.06614505	     -0.99106470	      0.85540931	      0.19745739	      1.14281638	     13.40192682	     -6.97220022	     26.07013943	     -5.67401230	      0.45500977	     26.29310124	    -13.64566043	     -9.10554184	     29.37344711	      2.42644833	     -3.54110878	     45.77500178	     -9.96868009	      0.79892450	     17.42730266	    -19.15395942	     -9.10554184	    -35.93414611	      6.67524437	      0.36432722	     21.77589509	    -12.03225249	     -1.90498121	     39.36264594	     90.00000001	      0.00000000	      0.00000000	     12.16591939	     -5.83079894	    -15.72830985	     25.07405425	     90.00000001	      0.00000000	      0.00000000
      0.53000000	      6.92532864	     -3.21933405	      7.93165806	     -0.98208809	      0.85503349	      0.19699597	     -0.05059027	     13.29449830	     -7.02808443	     25.77821709	     -5.72850771	      0.44991476	     27.18853168	    -12.99178922	     -9.04966756	     29.22110692	      2.61049337	     -4.33388621	     42.70606213	     -9.74173427	      0.74536139	     16.75913962	    -19.04619739	     -9.04966756	    -36.16334026	      6.50981637	      0.42887294	     22.28601799	    -12.38973176	     -1.18292138	     40.03251849	     90.00000001	      0.00000000	      0.00000000	     11.99757316	     -5.60562977	    -16.87314116	     24.34483354	     90.00000001	      0.00000000	      0.00000000
